<?xml version="1.0" encoding="UTF-8" standalone="no"?>
<svg
   xmlns:dc="http://purl.org/dc/elements/1.1/"
   xmlns:cc="http://creativecommons.org/ns#"
   xmlns:rdf="http://www.w3.org/1999/02/22-rdf-syntax-ns#"
   xmlns:svg="http://www.w3.org/2000/svg"
   xmlns="http://www.w3.org/2000/svg"
   xmlns:sodipodi="http://sodipodi.sourceforge.net/DTD/sodipodi-0.dtd"
   xmlns:inkscape="http://www.inkscape.org/namespaces/inkscape"
   id="Capa_1"
   enable-background="new 0 0 511.072 511.072"
   height="512px"
   viewBox="0 0 511.072 511.072"
   width="512px"
   version="1.1"
   sodipodi:docname="comment.svg"
   inkscape:version="0.92.4 (5da689c313, 2019-01-14)">
  <metadata
     id="metadata14">
    <rdf:RDF>
      <cc:Work
         rdf:about="">
        <dc:format>image/svg+xml</dc:format>
        <dc:type
           rdf:resource="http://purl.org/dc/dcmitype/StillImage" />
      </cc:Work>
    </rdf:RDF>
  </metadata>
  <defs
     id="defs12" />
  <sodipodi:namedview
     pagecolor="#ffffff"
     bordercolor="#666666"
     borderopacity="1"
     objecttolerance="10"
     gridtolerance="10"
     guidetolerance="10"
     inkscape:pageopacity="0"
     inkscape:pageshadow="2"
     inkscape:window-width="1920"
     inkscape:window-height="1017"
     id="namedview10"
     showgrid="false"
     inkscape:zoom="0.65186406"
     inkscape:cx="503.04388"
     inkscape:cy="140.00249"
     inkscape:window-x="-8"
     inkscape:window-y="-8"
     inkscape:window-maximized="1"
     inkscape:current-layer="g7" />
  <g
     id="g7"
     transform="translate(3.0625634,1.5312817)"
     style="fill:#ff0000">
    <g
       id="g825"
       transform="matrix(1.0424021,0,0,1.0647333,4.7818938,28.445324)"
       style="fill:#ffffff">
      <path
         id="path823"
         data-old_color="#000000"
         class="active-path"
         data-original="#000000"
         d="M 408,0 H 72 C 32.253906,0.0429688 0.0429688,32.253906 0,72 v 208 c 0.0429688,39.74609 32.253906,71.95703 72,72 h 22.238281 l -14.078125,70.39844 c -0.605468,3.02734 0.585938,6.1289 3.054688,7.97656 2.46875,1.84766 5.78125,2.10937 8.511718,0.67187 L 241.97656,352 H 408 c 39.74609,-0.043 71.95703,-32.25391 72,-72 V 72 C 479.95703,32.253906 447.74609,0.0429688 408,0 Z m 56,280 c -0.0352,30.91406 -25.08594,55.96484 -56,56 H 240 c -1.30078,0 -2.57813,0.31641 -3.72656,0.92187 l -137.128909,72.17579 12.695309,-63.4961 c 0.48047,-2.35547 -0.12109,-4.80078 -1.64062,-6.66015 C 108.67969,337.07813 106.40234,336 104,336 H 72 C 41.085938,335.96484 16.035156,310.91406 16,280 V 72 C 16.035156,41.085938 41.085938,16.035156 72,16 h 336 c 30.91406,0.03516 55.96484,25.085938 56,56 z m 0,0"
         inkscape:connector-curvature="0"
         style="fill:#ffffff" />
    </g>
  </g>
</svg>
