<?xml version="1.0" encoding="UTF-8" standalone="no"?>
<svg
   xmlns:dc="http://purl.org/dc/elements/1.1/"
   xmlns:cc="http://creativecommons.org/ns#"
   xmlns:rdf="http://www.w3.org/1999/02/22-rdf-syntax-ns#"
   xmlns:svg="http://www.w3.org/2000/svg"
   xmlns="http://www.w3.org/2000/svg"
   xmlns:sodipodi="http://sodipodi.sourceforge.net/DTD/sodipodi-0.dtd"
   xmlns:inkscape="http://www.inkscape.org/namespaces/inkscape"
   height="150"
   viewBox="0 0 179.42097 134.56572"
   width="200"
   class=""
   version="1.1"
   id="svg6"
   sodipodi:docname="secondary.svg"
   inkscape:version="0.92.4 (5da689c313, 2019-01-14)">
  <metadata
     id="metadata12">
    <rdf:RDF>
      <cc:Work
         rdf:about="">
        <dc:format>image/svg+xml</dc:format>
        <dc:type
           rdf:resource="http://purl.org/dc/dcmitype/StillImage" />
        <dc:title></dc:title>
      </cc:Work>
    </rdf:RDF>
  </metadata>
  <defs
     id="defs10" />
  <sodipodi:namedview
     pagecolor="#ffffff"
     bordercolor="#666666"
     borderopacity="1"
     objecttolerance="10"
     gridtolerance="10"
     guidetolerance="10"
     inkscape:pageopacity="0"
     inkscape:pageshadow="2"
     inkscape:window-width="1920"
     inkscape:window-height="1017"
     id="namedview8"
     showgrid="false"
     inkscape:zoom="1.3037281"
     inkscape:cx="181.56292"
     inkscape:cy="-89.261194"
     inkscape:window-x="-8"
     inkscape:window-y="-8"
     inkscape:window-maximized="1"
     inkscape:current-layer="svg6" />
  <g
     id="g4"
     transform="matrix(0.16540378,-0.3097197,0.31816972,0.1490637,-15.176434,101.88026)"
     style="fill:#aca793">
    <path
       d="M 66.828125,55.519531 13.558594,2.246094 C 10.417969,-0.785156 5.429688,-0.742188 2.34375,2.34375 -0.742188,5.429688 -0.785156,10.417969 2.246094,13.558594 L 55.519531,66.828125 15.902344,185.62109 289.60547,459.31641 459.31641,289.60547 185.62109,15.902344 Z m 81.363285,92.664059 c -14.52344,14.51563 -37.67578,15.6836 -53.582035,2.69532 C 78.707031,137.89453 75.214844,114.97656 86.535156,97.84375 l 11.765625,11.76953 c -4.554687,9.63672 -2.191406,21.125 5.800779,28.17969 7.98828,7.05469 19.67969,7.98047 28.67969,2.26562 9,-5.71093 13.14062,-16.68359 10.15234,-26.91796 -2.98437,-10.23438 -12.37109,-17.261724 -23.03125,-17.238286 -3.55859,0.03125 -7.0664,0.851562 -10.27343,2.398437 L 97.84375,86.519531 c 17.13281,-11.320312 40.04687,-7.832031 53.03516,8.070313 12.98437,15.902346 11.82421,39.054686 -2.6875,53.574216 z m 0,0"
       data-original="#000000"
       class="active-path"
       data-old_color="#000000"
       id="path2"
       inkscape:connector-curvature="0"
       style="fill:#aca793" />
  </g>
  <text
     xml:space="preserve"
     style="font-style:normal;font-variant:normal;font-weight:normal;font-stretch:normal;font-size:31.28914261px;line-height:1.25;font-family:'Wide Latin';-inkscape-font-specification:'Wide Latin';letter-spacing:0px;word-spacing:0px;fill:#000000;fill-opacity:1;stroke:none;stroke-width:0.78222853"
     x="47.841476"
     y="73.835007"
     id="text842"
     transform="matrix(0.70073268,-0.22803193,0.4199291,1.2904247,0,0)"><tspan
       sodipodi:role="line"
       x="47.841476"
       y="73.835007"
       id="tspan840"
       style="font-style:normal;font-variant:normal;font-weight:normal;font-stretch:normal;font-family:'Bradley Hand ITC';-inkscape-font-specification:'Bradley Hand ITC';stroke-width:0.78222853">Secondary<tspan
   x="47.841476"
   y="73.835007"
   id="tspan838"
   style="font-style:normal;font-variant:normal;font-weight:normal;font-stretch:normal;font-family:'Bradley Hand ITC';-inkscape-font-specification:'Bradley Hand ITC';stroke-width:0.78222853" /></tspan></text>
</svg>
