<?xml version="1.0" encoding="UTF-8" standalone="no"?>
<svg
   xmlns:dc="http://purl.org/dc/elements/1.1/"
   xmlns:cc="http://creativecommons.org/ns#"
   xmlns:rdf="http://www.w3.org/1999/02/22-rdf-syntax-ns#"
   xmlns:svg="http://www.w3.org/2000/svg"
   xmlns="http://www.w3.org/2000/svg"
   xmlns:sodipodi="http://sodipodi.sourceforge.net/DTD/sodipodi-0.dtd"
   xmlns:inkscape="http://www.inkscape.org/namespaces/inkscape"
   height="150"
   viewBox="0 0 224.27621 134.56572"
   width="250"
   class=""
   version="1.1"
   id="svg6"
   sodipodi:docname="tag.svg"
   inkscape:version="0.92.4 (5da689c313, 2019-01-14)">
  <metadata
     id="metadata12">
    <rdf:RDF>
      <cc:Work
         rdf:about="">
        <dc:format>image/svg+xml</dc:format>
        <dc:type
           rdf:resource="http://purl.org/dc/dcmitype/StillImage" />
        <dc:title></dc:title>
      </cc:Work>
    </rdf:RDF>
  </metadata>
  <defs
     id="defs10">
	

		
	</defs>
  <sodipodi:namedview
     pagecolor="#ffffff"
     bordercolor="#666666"
     borderopacity="1"
     objecttolerance="10"
     gridtolerance="10"
     guidetolerance="10"
     inkscape:pageopacity="0"
     inkscape:pageshadow="2"
     inkscape:window-width="1920"
     inkscape:window-height="1017"
     id="namedview8"
     showgrid="false"
     inkscape:zoom="1.3037281"
     inkscape:cx="50.784117"
     inkscape:cy="-89.261194"
     inkscape:window-x="-8"
     inkscape:window-y="-8"
     inkscape:window-maximized="1"
     inkscape:current-layer="svg6" />
  <text
     xml:space="preserve"
     style="font-style:normal;font-variant:normal;font-weight:normal;font-stretch:normal;font-size:33.04838943px;line-height:1.25;font-family:'Wide Latin';-inkscape-font-specification:'Wide Latin';letter-spacing:0px;word-spacing:0px;fill:#000000;fill-opacity:1;stroke:none;stroke-width:0.82620978"
     x="111.92586"
     y="28.930904"
     id="text842"
     transform="matrix(0.77410508,0.2180123,-0.54342409,1.138769,0,0)"><tspan
       sodipodi:role="line"
       x="111.92586"
       y="28.930904"
       id="tspan840"
       style="font-style:normal;font-variant:normal;font-weight:normal;font-stretch:normal;font-family:'Bradley Hand ITC';-inkscape-font-specification:'Bradley Hand ITC';stroke-width:0.82620978"><tspan
         x="111.92586"
         y="28.930904"
         id="tspan838"
         style="font-style:normal;font-variant:normal;font-weight:normal;font-stretch:normal;font-family:'Bradley Hand ITC';-inkscape-font-specification:'Bradley Hand ITC';stroke-width:0.82620978">PRIMARY</tspan></tspan></text>
  <g
     id="g1474"
     transform="matrix(0.84788267,0,0,1,85.966891,-149.31928)">
    <path
       d="m 15.628906,167.95117 c -3.456719,0.0577 -6.9616924,0.67487 -10.300781,1.80469 l -60.402344,21.10742 c -10.24606,3.59952 -18.727808,10.00349 -23.693359,17.86328 l -24.511722,-4.63281 c -3.14256,-0.59393 -6.59464,0.97879 -7.66992,3.49414 -1.07526,2.51534 0.61719,5.05841 3.75977,5.65234 l 24.511716,4.63282 c -2.051533,8.41054 0.09561,16.82374 6.039062,23.43359 l 34.691406,39.17969 c 3.056667,3.39512 7.572914,5.83165 12.886719,6.83594 l 142.787107,26.98632 c 12.93265,2.39481 26.98641,-4.04404 31.34766,-14.39062 0.0195,-0.0457 0.0194,-0.046 0.0391,-0.0918 l 34.66406,-81.08594 c 4.53267,-10.31419 -2.251,-20.73948 -15.125,-23.27148 -0.0572,-0.0111 -0.0562,-0.013 -0.11328,-0.0234 L 21.751953,168.46094 c -1.992673,-0.37661 -4.049015,-0.54439 -6.123047,-0.50977 z m -0.935547,9.33985 c 1.074216,-0.0142 2.139494,0.0752 3.167969,0.26953 l 142.787112,26.98633 c 6.6851,1.26346 10.0081,6.63745 7.7207,11.98828 l -34.68359,81.13086 c -2.28741,5.35082 -9.36373,8.7576 -16.04883,7.49414 L -25.150391,278.17578 c -2.7426,-0.51833 -5.114997,-1.75773 -6.642578,-3.5293 l -34.710937,-39.13476 c -3.867062,-4.38857 -5.54745,-9.84612 -4.574219,-15.44531 l 29.759766,5.625 c -0.258069,-1.05634 -0.287616,-2.07671 -0.1875,-3.25782 0.238809,-1.35549 0.102014,-2.73118 0.07617,-4.09765 -0.0033,-1.24778 0.07909,-1.43685 0.476563,-2.46094 l -26.214844,-4.95508 c 1.258671,-1.78869 2.83993,-3.46822 4.611328,-5.01172 3.214965,-2.75352 7.131387,-4.97892 11.478516,-6.48047 L 9.3632812,178.22852 c 1.7235928,-0.60104 3.5397188,-0.91385 5.3300778,-0.9375 z m -45.78125,36.80273 c -0.0494,0.009 -0.13533,0.0402 -0.208984,0.0644 -0.0077,0.008 -0.01571,0.0156 -0.02344,0.0234 0.08051,-0.027 0.163326,-0.0518 0.232421,-0.0879 z m -2.03125,7.95898 c -0.09688,-0.41523 0.07059,0.71829 0.31836,1.19727 -0.109856,-0.3979 -0.224597,-0.79536 -0.31836,-1.19727 z m -0.714843,0.81836 c -0.01964,0.15161 -0.02862,0.30382 -0.05469,0.45508 -0.07176,0.2038 -0.132305,0.2077 -0.183594,0.16797 0.163901,0.37162 0.325247,0.75387 0.482422,1.13672 0.0932,-0.087 0.182581,-0.1786 0.279297,-0.26172 0.02,-0.0172 0.02144,0.006 0.01953,0.0391 0.01304,-0.01 0.02602,-0.0196 0.03906,-0.0293 0.0658,-0.21791 0.156987,-0.42899 0.248047,-0.64063 -0.306377,-0.30953 -0.622798,-0.62511 -0.830078,-0.86719 z"
       style="fill:#ffce00;stroke-width:0.53143454"
       transform="scale(0.89710482)"
       id="path1408"
       inkscape:connector-curvature="0" />
    <circle
       r="13.418093"
       cy="198.21565"
       cx="-36.125633"
       id="path1470"
       style="opacity:1;fill:#ffce00;fill-opacity:1;stroke:none;stroke-width:0.01614789;stroke-linecap:square;stroke-miterlimit:4;stroke-dasharray:0, 0.17762675;stroke-dashoffset:0.17640001;stroke-opacity:1" />
  </g>
</svg>
